<svg width="96" height="96" fill="none" xmlns="http://www.w3.org/2000/svg"><circle cx="48" cy="48" r="48" fill="#FCB72B"/><path d="M39.668 48.6c0-.544.2-1.016.6-1.416.4-.4.872-.6 1.416-.6.544 0 1.016.2 1.416.6.4.4.6.872.6 1.416 0 .544-.2 1.016-.6 1.416-.4.4-.872.6-1.416.6-.544 0-1.016-.2-1.416-.6-.4-.4-.6-.872-.6-1.416Zm-4.176-1.872c0-2.176.544-3.864 1.632-5.064 1.104-1.2 2.624-1.8 4.56-1.8 1.936 0 3.448.6 4.536 1.8 1.104 1.2 1.656 2.888 1.656 5.064v3.744c0 2.24-.552 3.944-1.656 5.112-1.088 1.168-2.6 1.752-4.536 1.752-1.936 0-3.456-.584-4.56-1.752-1.088-1.168-1.632-2.872-1.632-5.112v-3.744Zm6.192 7.728c.576 0 1.056-.088 1.44-.264.384-.192.696-.456.936-.792.24-.336.408-.736.504-1.2.096-.464.144-.976.144-1.536v-4.128c0-.528-.056-1.024-.168-1.488a3.423 3.423 0 0 0-.528-1.2c-.24-.336-.552-.6-.936-.792-.384-.208-.848-.312-1.392-.312-.544 0-1.008.104-1.392.312a2.507 2.507 0 0 0-.936.792c-.24.336-.416.736-.528 1.2-.112.464-.168.96-.168 1.488v4.128c0 .56.048 1.072.144 1.536.096.464.264.864.504 1.2.24.336.552.6.936.792.384.176.864.264 1.44.264Zm12.616-.48V41.784h-.432l-1.584 5.76H49.26v-.288l2.016-7.056h6.192v13.776h4.176V57H49.548v-3.024H54.3Z" fill="#495567"/></svg>