<svg width="96" height="96" fill="none" xmlns="http://www.w3.org/2000/svg"><circle cx="48" cy="48" r="48" fill="#FCB72B"/><path d="M39.668 48.6c0-.544.2-1.016.6-1.416.4-.4.872-.6 1.416-.6.544 0 1.016.2 1.416.6.4.4.6.872.6 1.416 0 .544-.2 1.016-.6 1.416-.4.4-.872.6-1.416.6-.544 0-1.016-.2-1.416-.6-.4-.4-.6-.872-.6-1.416Zm-4.176-1.872c0-2.176.544-3.864 1.632-5.064 1.104-1.2 2.624-1.8 4.56-1.8 1.936 0 3.448.6 4.536 1.8 1.104 1.2 1.656 2.888 1.656 5.064v3.744c0 2.24-.552 3.944-1.656 5.112-1.088 1.168-2.6 1.752-4.536 1.752-1.936 0-3.456-.584-4.56-1.752-1.088-1.168-1.632-2.872-1.632-5.112v-3.744Zm6.192 7.728c.576 0 1.056-.088 1.44-.264.384-.192.696-.456.936-.792.24-.336.408-.736.504-1.2.096-.464.144-.976.144-1.536v-4.128c0-.528-.056-1.024-.168-1.488a3.423 3.423 0 0 0-.528-1.2c-.24-.336-.552-.6-.936-.792-.384-.208-.848-.312-1.392-.312-.544 0-1.008.104-1.392.312a2.507 2.507 0 0 0-.936.792c-.24.336-.416.736-.528 1.2-.112.464-.168.96-.168 1.488v4.128c0 .56.048 1.072.144 1.536.096.464.264.864.504 1.2.24.336.552.6.936.792.384.176.864.264 1.44.264ZM53.676 49.8v-4.992l4.176-1.152v-.432H49.5V40.2h10.944v5.28l-4.464 1.296v.432h.576c.592 0 1.176.096 1.752.288.576.176 1.08.456 1.512.84.448.384.808.864 1.08 1.44.272.56.408 1.224.408 1.992v.288c0 .752-.128 1.448-.384 2.088a4.52 4.52 0 0 1-1.104 1.68c-.48.464-1.08.832-1.8 1.104-.72.272-1.544.408-2.472.408-.944 0-1.8-.152-2.568-.456a5.91 5.91 0 0 1-1.968-1.248 5.63 5.63 0 0 1-1.656-4.008v-1.008h3.168v.864c0 .768.248 1.432.744 1.992s1.24.84 2.232.84c.848 0 1.496-.216 1.944-.648.464-.432.696-1 .696-1.704 0-.752-.248-1.296-.744-1.632-.48-.352-1.096-.528-1.848-.528h-1.872Z" fill="#495567"/></svg>