<svg width="96" height="96" fill="none" xmlns="http://www.w3.org/2000/svg"><circle cx="48" cy="48" r="48" fill="#FCB72B"/><path d="M39.668 48.6c0-.544.2-1.016.6-1.416.4-.4.872-.6 1.416-.6.544 0 1.016.2 1.416.6.4.4.6.872.6 1.416 0 .544-.2 1.016-.6 1.416-.4.4-.872.6-1.416.6-.544 0-1.016-.2-1.416-.6-.4-.4-.6-.872-.6-1.416Zm-4.176-1.872c0-2.176.544-3.864 1.632-5.064 1.104-1.2 2.624-1.8 4.56-1.8 1.936 0 3.448.6 4.536 1.8 1.104 1.2 1.656 2.888 1.656 5.064v3.744c0 2.24-.552 3.944-1.656 5.112-1.088 1.168-2.6 1.752-4.536 1.752-1.936 0-3.456-.584-4.56-1.752-1.088-1.168-1.632-2.872-1.632-5.112v-3.744Zm6.192 7.728c.576 0 1.056-.088 1.44-.264.384-.192.696-.456.936-.792.24-.336.408-.736.504-1.2.096-.464.144-.976.144-1.536v-4.128c0-.528-.056-1.024-.168-1.488a3.423 3.423 0 0 0-.528-1.2c-.24-.336-.552-.6-.936-.792-.384-.208-.848-.312-1.392-.312-.544 0-1.008.104-1.392.312a2.507 2.507 0 0 0-.936.792c-.24.336-.416.736-.528 1.2-.112.464-.168.96-.168 1.488v4.128c0 .56.048 1.072.144 1.536.096.464.264.864.504 1.2.24.336.552.6.936.792.384.176.864.264 1.44.264Zm19.648-.48V57H49.524v-3.312c0-.88.128-1.632.384-2.256a4.54 4.54 0 0 1 1.128-1.584 6.078 6.078 0 0 1 1.776-1.056 13.774 13.774 0 0 1 2.328-.72c.64-.144 1.16-.304 1.56-.48.416-.192.744-.4.984-.624.24-.24.4-.496.48-.768.096-.288.144-.608.144-.96a2.17 2.17 0 0 0-.744-1.68c-.48-.448-1.152-.672-2.016-.672-.912 0-1.64.28-2.184.84-.544.544-.816 1.304-.816 2.28v1.056H49.38V45.72c0-.784.136-1.528.408-2.232a5.694 5.694 0 0 1 1.2-1.872 5.52 5.52 0 0 1 1.92-1.272c.752-.32 1.6-.48 2.544-.48 1.008 0 1.888.152 2.64.456.752.288 1.376.672 1.872 1.152.512.48.888 1.04 1.128 1.68.256.624.384 1.272.384 1.944v.288c0 1.408-.4 2.576-1.2 3.504-.784.928-2.072 1.6-3.864 2.016-.752.176-1.376.36-1.872.552-.48.176-.856.376-1.128.6a1.918 1.918 0 0 0-.576.744 2.521 2.521 0 0 0-.144.888v.288h8.64Z" fill="#495567"/></svg>